name C:\Users\antoi\Documents\MyRepositories\upper-imu-dc\Results\main_tracking\Case_70\ABD01_linearAccelerations_bodyFrame.mot
datacolumns 4
datarows 105
range 6.31000000 7.35000000
endheader 
time	radius_imu_x	radius_imu_y	radius_imu_z	
          6.31000000	         -0.03583703	         -8.40840907	          4.65461992	
          6.32000000	         -0.09748250	         -8.43668326	          4.60706797	
          6.33000000	         -0.16484085	         -8.46560973	          4.55593276	
          6.34000000	         -0.23745900	         -8.49517105	          4.50115004	
          6.35000000	         -0.31478088	         -8.52530186	          4.44270905	
          6.36000000	         -0.39609379	         -8.55588673	          4.38073515	
          6.37000000	         -0.48044959	         -8.58675737	          4.31552089	
          6.38000000	         -0.56663130	         -8.61771045	          4.24758564	
          6.39000000	         -0.65311321	         -8.64854320	          4.17770760	
          6.40000000	         -0.73826398	         -8.67909887	          4.10689004	
          6.41000000	         -0.82036486	         -8.70928758	          4.03637182	
          6.42000000	         -0.89743363	         -8.73908742	          3.96720411	
          6.43000000	         -0.96829340	         -8.76850493	          3.90022995	
          6.44000000	         -1.03222224	         -8.79752713	          3.83602252	
          6.45000000	         -1.08853272	         -8.82610076	          3.77473703	
          6.46000000	         -1.13678021	         -8.85414986	          3.71616367	
          6.47000000	         -1.17662469	         -8.88157736	          3.66007544	
          6.48000000	         -1.20764706	         -8.90827449	          3.60642848	
          6.49000000	         -1.22937509	         -8.93412718	          3.55548405	
          6.50000000	         -1.24108228	         -8.95903119	          3.50755556	
          6.51000000	         -1.24205260	         -8.98289593	          3.46307410	
          6.52000000	         -1.23213806	         -9.00564023	          3.42253543	
          6.53000000	         -1.21168754	         -9.02719611	          3.38619741	
          6.54000000	         -1.18136974	         -9.04749168	          3.35378404	
          6.55000000	         -1.14221608	         -9.06644924	          3.32474216	
          6.56000000	         -1.09545934	         -9.08400464	          3.29815458	
          6.57000000	         -1.04247441	         -9.10006653	          3.27281021	
          6.58000000	         -0.98457256	         -9.11464152	          3.24736428	
          6.59000000	         -0.92299887	         -9.12778879	          3.22050921	
          6.60000000	         -0.85895824	         -9.13963356	          3.19112378	
          6.61000000	         -0.79385740	         -9.15035475	          3.15842500	
          6.62000000	         -0.72932805	         -9.16013523	          3.12210685	
          6.63000000	         -0.66705377	         -9.16914619	          3.08228194	
          6.64000000	         -0.60812083	         -9.17755690	          3.03897830	
          6.65000000	         -0.55440869	         -9.18550559	          2.99274540	
          6.66000000	         -0.50755484	         -9.19311118	          2.94438270	
          6.67000000	         -0.46899113	         -9.20050922	          2.89433188	
          6.68000000	         -0.43967854	         -9.20778555	          2.84357737	
          6.69000000	         -0.42019241	         -9.21508296	          2.79252310	
          6.70000000	         -0.41089111	         -9.22250739	          2.74173787	
          6.71000000	         -0.41171149	         -9.23023305	          2.69175628	
          6.72000000	         -0.42218223	         -9.23848414	          2.64297319	
          6.73000000	         -0.44150038	         -9.24753960	          2.59556376	
          6.74000000	         -0.46849067	         -9.25768525	          2.54947724	
          6.75000000	         -0.50176215	         -9.26914573	          2.50462798	
          6.76000000	         -0.53989025	         -9.28206164	          2.46066200	
          6.77000000	         -0.58124025	         -9.29647038	          2.41717485	
          6.78000000	         -0.62411418	         -9.31230774	          2.37390802	
          6.79000000	         -0.66679574	         -9.32941031	          2.33090296	
          6.80000000	         -0.70768849	         -9.34752830	          2.28843255	
          6.81000000	         -0.74543723	         -9.36632902	          2.24697191	
          6.82000000	         -0.77910244	         -9.38540964	          2.20718747	
          6.83000000	         -0.80825595	         -9.40437242	          2.16972408	
          6.84000000	         -0.83299672	         -9.42283805	          2.13501122	
          6.85000000	         -0.85405459	         -9.44050728	          2.10299886	
          6.86000000	         -0.87236051	         -9.45717002	          2.07336579	
          6.87000000	         -0.88867152	         -9.47261307	          2.04592284	
          6.88000000	         -0.90395603	         -9.48675194	          2.02000390	
          6.89000000	         -0.91886705	         -9.49959136	          1.99488824	
          6.90000000	         -0.93363801	         -9.51116569	          1.97021965	
          6.91000000	         -0.94821293	         -9.52155330	          1.94597215	
          6.92000000	         -0.96233701	         -9.53081909	          1.92244375	
          6.93000000	         -0.97566824	         -9.53904465	          1.90005550	
          6.94000000	         -0.98786097	         -9.54635592	          1.87940729	
          6.95000000	         -0.99864797	         -9.55295330	          1.86078131	
          6.96000000	         -1.00788300	         -9.55907143	          1.84425314	
          6.97000000	         -1.01594934	         -9.56489208	          1.82996033	
          6.98000000	         -1.02323609	         -9.57055640	          1.81690350	
          6.99000000	         -1.03144196	         -9.57609449	          1.80369034	
          7.00000000	         -1.04128823	         -9.58139981	          1.78907204	
          7.01000000	         -1.05493574	         -9.58637172	          1.77036173	
          7.02000000	         -1.07413496	         -9.59087456	          1.74531867	
          7.03000000	         -1.10054468	         -9.59485996	          1.71158111	
          7.04000000	         -1.13488036	         -9.59836820	          1.66770186	
          7.05000000	         -1.17793051	         -9.60157160	          1.61242024	
          7.06000000	         -1.22895305	         -9.60462162	          1.54599876	
          7.07000000	         -1.28634465	         -9.60760901	          1.46927068	
          7.08000000	         -1.34924090	         -9.61043414	          1.38448812	
          7.09000000	         -1.41586324	         -9.61284462	          1.29407156	
          7.10000000	         -1.48417860	         -9.61439979	          1.20143800	
          7.11000000	         -1.55206159	         -9.61455883	          1.11012687	
          7.12000000	         -1.61754903	         -9.61273277	          1.02347811	
          7.13000000	         -1.67860897	         -9.60830040	          0.94492980	
          7.14000000	         -1.73342165	         -9.60070047	          0.87707867	
          7.15000000	         -1.78003920	         -9.58944505	          0.82205237	
          7.16000000	         -1.81702522	         -9.57416909	          0.78105244	
          7.17000000	         -1.84218262	         -9.55460404	          0.75492890	
          7.18000000	         -1.85392492	         -9.53060188	          0.74385305	
          7.19000000	         -1.85107651	         -9.50211864	          0.74760325	
          7.20000000	         -1.83243065	         -9.46918537	          0.76597839	
          7.21000000	         -1.79760231	         -9.43190525	          0.79844863	
          7.22000000	         -1.74670421	         -9.39039416	          0.84445809	
          7.23000000	         -1.67953444	         -9.34473492	          0.90357154	
          7.24000000	         -1.59736730	         -9.29500959	          0.97477705	
          7.25000000	         -1.50121335	         -9.24124341	          1.05747301	
          7.26000000	         -1.39208139	         -9.18348179	          1.15119675	
          7.27000000	         -1.27149409	         -9.12181837	          1.25570573	
          7.28000000	         -1.14118313	         -9.05641489	          1.37100684	
          7.29000000	         -1.00323024	         -8.98748287	          1.49749017	
          7.30000000	         -0.85988136	         -8.91527274	          1.63572580	
          7.31000000	         -0.71323218	         -8.84009199	          1.78629405	
          7.32000000	         -0.56534229	         -8.76231237	          1.94957570	
          7.33000000	         -0.41803956	         -8.68241203	          2.12556384	
          7.34000000	         -0.27282313	         -8.60097264	          2.31372013	
          7.35000000	         -0.13085206	         -8.51867724	          2.51290670	
